<svg xmlns="http://www.w3.org/2000/svg" version="1.1" xmlns:xlink="http://www.w3.org/1999/xlink" xmlns:svgjs="http://svgjs.dev/svgjs" width="1000" height="623" viewBox="0 0 1000 623"><g transform="matrix(1,0,0,1,-0.6060606060606233,0.2522267206477409)"><svg viewBox="0 0 396 247" data-background-color="#ffffff" preserveAspectRatio="xMidYMid meet" height="623" width="1000" xmlns="http://www.w3.org/2000/svg" xmlns:xlink="http://www.w3.org/1999/xlink"><g id="tight-bounds" transform="matrix(1,0,0,1,0.2400000000000091,-0.09999999999999432)"><svg viewBox="0 0 395.52 247.2" height="247.2" width="395.52"><g><svg></svg></g><g><svg viewBox="0 0 395.52 247.2" height="247.2" width="395.52"><g transform="matrix(1,0,0,1,75.54432,62.221494950596245)"><svg viewBox="0 0 244.43135999999998 122.7570100988075" height="122.7570100988075" width="244.43135999999998"><g><svg viewBox="0 0 244.43135999999998 122.7570100988075" height="122.7570100988075" width="244.43135999999998"><g><svg viewBox="0 0 244.43135999999998 122.7570100988075" height="122.7570100988075" width="244.43135999999998"><g><svg viewBox="0 0 244.43135999999998 122.7570100988075" height="122.7570100988075" width="244.43135999999998"><g><svg viewBox="0 0 244.43135999999998 122.7570100988075" height="122.7570100988075" width="244.43135999999998"><g><svg viewBox="0 0 244.43135999999998 122.7570100988075" height="122.7570100988075" width="244.43135999999998"><g transform="matrix(1,0,0,1,0,0)"><svg width="244.43135999999998" viewBox="1.559999942779541 -35.380001068115234 71.66000366210938 35.9900016784668" height="122.7570100988075" data-palette-color="#3d3839"><path d="M14.84-30.69L14.84-30.69Q14.84-31.2 14.64-31.26 14.43-31.32 14.14-31.37L14.14-31.37 5.86-31.37Q4.96-31.18 4.44-30.65 3.93-30.13 3.64-29.42 3.34-28.71 3.2-27.89 3.05-27.08 2.88-26.32L2.88-26.32Q2.83-26.1 2.78-25.79 2.73-25.49 2.69-25.44L2.69-25.44Q2.64-25.37 2.51-25.37L2.51-25.37 1.71-25.37Q1.56-25.37 1.56-25.46L1.56-25.46 1.56-26.27 2.47-34.62Q2.51-34.89 2.69-35.13 2.86-35.38 3.22-35.38L3.22-35.38Q3.39-35.38 3.55-35.28 3.71-35.18 3.86-35.05 4-34.91 4.14-34.79 4.27-34.67 4.42-34.62L4.42-34.62Q4.71-34.5 4.97-34.46 5.22-34.42 5.54-34.42L5.54-34.42 31.13-34.42Q31.45-34.42 31.7-34.46 31.96-34.5 32.25-34.62L32.25-34.62Q32.4-34.67 32.53-34.79 32.67-34.91 32.81-35.05 32.96-35.18 33.12-35.28 33.28-35.38 33.45-35.38L33.45-35.38Q33.81-35.38 33.98-35.13 34.16-34.89 34.2-34.62L34.2-34.62 35.11-26.27 35.11-25.46Q35.11-25.37 34.96-25.37L34.96-25.37 34.16-25.37Q34.03-25.37 33.98-25.44L33.98-25.44Q33.94-25.49 33.89-25.79 33.84-26.1 33.79-26.32L33.79-26.32Q33.62-27.08 33.47-27.89 33.33-28.71 33.03-29.42 32.74-30.13 32.23-30.65 31.71-31.18 30.81-31.37L30.81-31.37 22.51-31.37Q22.22-31.32 22.01-31.26 21.8-31.2 21.8-30.69L21.8-30.69 21.8-4.76Q21.8-4.03 22.17-3.45 22.53-2.88 23.16-2.44 23.78-2 24.62-1.73 25.46-1.46 26.42-1.37L26.42-1.37Q26.68-1.34 27.1-1.34 27.51-1.34 27.81-1.34L27.81-1.34Q27.93-1.34 27.97-1.27 28-1.2 28-1.15L28-1.15 28-0.2Q28-0.15 27.97-0.07 27.93 0 27.81 0L27.81 0 8.84 0Q8.72 0 8.68-0.07 8.64-0.15 8.64-0.2L8.64-0.2 8.64-1.15Q8.64-1.2 8.68-1.27 8.72-1.34 8.84-1.34L8.84-1.34Q9.11-1.34 9.53-1.34 9.96-1.34 10.23-1.37L10.23-1.37Q11.18-1.46 12.02-1.73 12.87-2 13.49-2.44 14.11-2.88 14.48-3.45 14.84-4.03 14.84-4.76L14.84-4.76 14.84-30.69ZM37.74-0.98L37.74-1.27Q37.74-1.29 37.77-1.38 37.79-1.46 37.94-1.46L37.94-1.46Q38.08-1.46 38.4-1.51 38.72-1.56 39.06-1.61 39.4-1.66 39.69-1.72 39.99-1.78 40.11-1.81L40.11-1.81Q41.5-2.12 42.05-2.84 42.6-3.56 42.6-4.64L42.6-4.64 42.6-29.44Q42.6-30.66 42.09-31.37 41.57-32.08 40.9-32.43 40.23-32.79 39.61-32.87 38.99-32.96 38.77-32.96L38.77-32.96 37.84-32.96Q37.72-32.96 37.68-33.03 37.64-33.11 37.64-33.15L37.64-33.15 37.64-34.23Q37.64-34.28 37.67-34.34 37.69-34.4 37.84-34.42L37.84-34.42Q37.86-34.42 37.95-34.42 38.03-34.42 38.3-34.44 38.57-34.45 39.08-34.46 39.6-34.47 40.52-34.5L40.52-34.5Q41.87-34.52 43.39-34.57 44.92-34.62 46.48-34.67 48.04-34.72 49.57-34.75 51.1-34.79 52.44-34.79L52.44-34.79 54.9-34.79Q56.83-34.79 58.84-34.13 60.84-33.47 62.46-32.19 64.08-30.91 65.12-29 66.16-27.1 66.16-24.61L66.16-24.61Q66.16-23 65.72-21.74 65.28-20.48 64.51-19.52 63.74-18.55 62.68-17.82 61.62-17.09 60.37-16.53L60.37-16.53 67.77-4.81Q68.72-3.3 69.99-2.06 71.26-0.83 72.95-0.34L72.95-0.34Q73.14-0.29 73.18-0.21 73.22-0.12 73.22 0L73.22 0Q73.22 0.37 73.02 0.49 72.82 0.61 72.41 0.61L72.41 0.61Q71.38 0.61 70.08 0.48 68.77 0.34 67.45 0.04 66.14-0.27 64.95-0.76 63.77-1.25 62.96-1.98L62.96-1.98Q62.18-2.66 61.37-3.71 60.57-4.76 59.75-5.97 58.93-7.18 58.14-8.48 57.35-9.79 56.6-11.04 55.86-12.28 55.17-13.35 54.49-14.43 53.93-15.19L53.93-15.19 50.12-15.45Q50.1-15.45 49.92-15.45 49.75-15.45 49.68-15.41L49.68-15.41Q49.61-15.36 49.58-15.31 49.56-15.26 49.56-15.11L49.56-15.11 49.56-4.71Q49.56-4.05 49.73-3.56 49.9-3.08 50.3-2.72 50.71-2.37 51.35-2.15 52-1.93 52.93-1.81L52.93-1.81Q53.07-1.78 53.35-1.73 53.64-1.68 53.96-1.62 54.29-1.56 54.61-1.51 54.93-1.46 55.15-1.46L55.15-1.46Q55.3-1.46 55.32-1.39 55.34-1.32 55.34-1.27L55.34-1.27 55.34-0.2Q55.34-0.15 55.31-0.07 55.27 0 55.15 0L55.15 0 37.94 0Q37.81 0 37.78-0.34 37.74-0.68 37.74-0.98L37.74-0.98ZM49.56-18.63L49.61-17.9Q49.63-17.7 49.72-17.54 49.8-17.38 50.07-17.36L50.07-17.36Q50.29-17.33 50.73-17.27 51.17-17.21 51.95-17.21L51.95-17.21Q54.1-17.21 55.49-17.87 56.88-18.53 57.69-19.64 58.49-20.75 58.8-22.19 59.1-23.63 59.1-25.2L59.1-25.2Q59.1-26.83 58.59-28.3 58.08-29.76 57.16-30.83 56.25-31.91 54.97-32.54 53.68-33.18 52.15-33.18L52.15-33.18Q51.8-33.18 51.61-33.17 51.41-33.15 51.23-33.14 51.05-33.13 50.82-33.12 50.58-33.11 50.17-33.08L50.17-33.08Q50.02-33.08 49.79-33.02 49.56-32.96 49.56-32.69L49.56-32.69 49.56-18.63Z" opacity="1" transform="matrix(1,0,0,1,0,0)" fill="#3d3839" class="undefined-text-0" data-fill-palette-color="primary" id="text-0"></path></svg></g></svg></g></svg></g></svg></g></svg></g></svg></g></svg></g><g><path d="M0 123.6c0-68.262 55.338-123.6 123.6-123.6 39.665 0 74.966 18.684 97.582 47.731l-7.117 0c-21.658-25.797-54.146-42.196-90.465-42.196-65.205 0-118.065 52.859-118.065 118.065 0 65.205 52.859 118.065 118.065 118.065 36.319 0 68.807-16.399 90.465-42.197l7.117 0c-22.616 29.047-57.917 47.731-97.582 47.732-68.262 0-123.6-55.338-123.6-123.6z" fill="#3d3839" stroke="transparent" data-fill-palette-color="tertiary"></path></g></svg></g><defs></defs></svg><rect width="395.52" height="247.2" fill="none" stroke="none" visibility="hidden"></rect></g></svg></g></svg>